<?xml version="1.0" encoding="UTF-8"?>
<svg id="Layer_2" data-name="Layer 2" xmlns="http://www.w3.org/2000/svg" viewBox="0 0 1090.02 196.57">
  <defs>
    <style>
      .cls-1 {
        fill: #fff;
      }
    </style>
  </defs>
  <g id="Layer_1-2" data-name="Layer 1">
    <g>
      <path class="cls-1" d="M129.36,0h-62.14C30.1,0,0,30.12,0,67.24v62.12c0,37.12,30.1,67.22,67.22,67.22h62.14c37.12,0,67.22-30.1,67.22-67.22v-62.12C196.57,30.12,166.48,0,129.36,0ZM98.29,160.46c-9.42-29.47-32.71-52.73-62.17-62.17,29.47-9.42,52.75-32.71,62.17-62.17,9.44,29.47,32.71,52.75,62.17,62.17-29.47,9.44-52.73,32.71-62.17,62.17Z"/>
      <g>
        <path class="cls-1" d="M373.78,196.57v-80.85h-61.82v80.85h-38.05V0h38.05v80.85h61.82V0h37.73v196.57h-37.73Z"/>
        <path class="cls-1" d="M443.23,196.57V47.56C443.23,21.25,464.47,0,490.78,0h90.36v196.57h-38.05v-62.14h-61.82v62.14h-38.05ZM543.1,99.56V34.88h-52.31c-5.39,0-9.51,4.12-9.51,9.51v55.17h61.82Z"/>
        <path class="cls-1" d="M712.72,196.57v-47.24l-61.82-88.77v136.01h-38.05V0h42.17l57.7,83.07V0h38.05v196.57h-38.05Z"/>
        <path class="cls-1" d="M782.48,196.57V0h38.05v78.31c48.82-4.44,61.82-32.66,61.82-78.31h38.05c0,40.58-9.2,78.31-45.66,100.82l52,95.75h-43.12l-44.7-82.43c-6.03.95-12.37,1.9-18.39,2.54v79.89h-38.05Z"/>
        <path class="cls-1" d="M952.1,196.57V47.56C952.1,21.25,973.35,0,999.66,0h90.36v196.57h-38.05v-62.14h-61.82v62.14h-38.05ZM1051.97,99.56V34.88h-52.31c-5.39,0-9.51,4.12-9.51,9.51v55.17h61.82Z"/>
      </g>
    </g>
  </g>
</svg>