<?xml version="1.0" encoding="UTF-8"?>
<svg id="Layer_2" data-name="Layer 2" xmlns="http://www.w3.org/2000/svg" viewBox="0 0 1090.02 196.58">
  <defs>
    <style>
      .cls-1 {
        fill: #fff;
      }
    </style>
  </defs>
  <g id="Layer_1-2" data-name="Layer 1">
    <g>
      <path d="M129.35,0h-62.13C30.09,0,0,30.12,0,67.24v62.12c0,37.12,30.09,67.22,67.22,67.22h62.13c37.12,0,67.22-30.1,67.22-67.22v-62.12C196.57,30.12,166.47,0,129.35,0ZM98.28,160.46c-9.42-29.47-32.7-52.73-62.17-62.17,29.47-9.42,52.75-32.71,62.17-62.18,9.45,29.47,32.71,52.76,62.18,62.18-29.47,9.44-52.73,32.7-62.18,62.17Z"/>
      <path class="cls-1" d="M160.46,98.29c-29.47,9.44-52.73,32.7-62.18,62.17-9.42-29.47-32.7-52.73-62.17-62.17,29.47-9.42,52.75-32.71,62.17-62.18,9.45,29.47,32.71,52.76,62.18,62.18Z"/>
      <g>
        <path d="M373.78,196.58v-80.85h-61.82v80.85h-38.05V0h38.05v80.85h61.82V0h37.73v196.57h-37.73Z"/>
        <path d="M443.22,196.58V47.56C443.22,21.25,464.46,0,490.78,0h90.36v196.57h-38.05v-62.14h-61.82v62.14h-38.05ZM543.09,99.56V34.88h-52.31c-5.39,0-9.51,4.12-9.51,9.51v55.17h61.82Z"/>
        <path d="M712.72,196.58v-47.24l-61.82-88.77v136.01h-38.05V0h42.17l57.7,83.07V0h38.05v196.57h-38.05Z"/>
        <path d="M782.47,196.58V0h38.05v78.31c48.82-4.44,61.82-32.66,61.82-78.31h38.05c0,40.58-9.2,78.31-45.66,100.82l52,95.75h-43.12l-44.7-82.43c-6.03.95-12.37,1.9-18.39,2.54v79.89h-38.05Z"/>
        <path d="M952.1,196.58V47.56C952.1,21.25,973.34,0,999.66,0h90.36v196.57h-38.05v-62.14h-61.82v62.14h-38.05ZM1051.97,99.56V34.88h-52.31c-5.39,0-9.51,4.12-9.51,9.51v55.17h61.82Z"/>
      </g>
    </g>
  </g>
</svg>